<svg xmlns="http://www.w3.org/2000/svg" width="23" height="27" viewBox="0 0 23 27" fill="none">
  <path fill-rule="evenodd" clip-rule="evenodd" d="M5.15418 25.5468L3.28278 26.6863C1.84003 27.5541 0 26.5191 0 24.8359V2.17001C0 0.476342 1.84003 -0.558674 3.28278 0.319523L9.53471 4.11459C9.25243 4.06231 8.9597 4.03095 8.65651 4.03095C5.68737 4.03095 3.27233 6.37281 3.12596 9.30013H5.48873C5.83374 9.30013 6.17874 9.58241 6.19965 9.93787C6.22056 10.3247 5.90692 10.6488 5.52009 10.6488H3.12596V11.9661H5.52009C5.90692 11.9661 6.22056 12.2797 6.19965 12.677C6.17874 13.0429 5.85465 13.3147 5.48873 13.3147H3.12596V14.6216H5.48873C5.83374 14.6216 6.17874 14.9143 6.19965 15.2698C6.22056 15.6566 5.90692 15.9807 5.52009 15.9807H3.12596C3.27233 18.908 5.68737 21.2394 8.65651 21.2394C8.75061 21.2394 8.8447 21.229 8.94925 21.229L7.83059 22.4313V23.9263L7.7365 23.9786H6.79557C5.91738 23.9786 5.196 24.679 5.15418 25.5468ZM21.9654 15.3534L9.48244 22.9226V21.1767C12.0543 20.7899 14.0512 18.6257 14.1766 15.9807H11.7825C11.3957 15.9807 11.0925 15.6566 11.1029 15.2698C11.1238 14.9143 11.4688 14.6216 11.8243 14.6216H14.1871V13.3147H11.7825C11.3957 13.3147 11.0925 12.9907 11.1029 12.6038C11.1238 12.2379 11.4584 11.9661 11.8243 11.9661H14.1871V10.6488H11.8243C11.4688 10.6488 11.1238 10.3665 11.1029 10.0111C11.0925 9.62423 11.3957 9.30013 11.7825 9.30013H14.1766C14.1243 8.16057 13.7271 7.11509 13.0893 6.25781L21.9654 11.6524C23.3559 12.4888 23.3559 14.5066 21.9654 15.3534Z" fill="url(#paint0_linear_3676_2372_v2)"/>
  <path style="mix-blend-mode:multiply" fill-rule="evenodd" clip-rule="evenodd" d="M8.94925 21.229L7.83059 22.4313V23.9263L7.7365 23.9786H6.79557C5.91738 23.9786 5.196 24.679 5.15418 25.5468L3.28278 26.6863C1.84003 27.5541 0 26.5191 0 24.8359V2.17001C0 0.476342 1.84003 -0.558674 3.28278 0.319523L9.53471 4.11459C9.25243 4.06231 8.9597 4.03095 8.65651 4.03095C5.68737 4.03095 3.27233 6.37281 3.12596 9.30013H5.48873C5.83374 9.30013 6.17874 9.58241 6.19965 9.93787C6.22056 10.3247 5.90692 10.6488 5.52009 10.6488H3.12596V11.9661H5.52009C5.90692 11.9661 6.22056 12.2797 6.19965 12.677C6.17874 13.0429 5.85465 13.3147 5.48873 13.3147H3.12596V14.6216H5.48873C5.83374 14.6216 6.17874 14.9143 6.19965 15.2698C6.22056 15.6566 5.90692 15.9807 5.52009 15.9807H3.12596C3.27233 18.908 5.68737 21.2394 8.65651 21.2394C8.75061 21.2394 8.8447 21.229 8.94925 21.229ZM16.163 18.8662L9.48244 22.9226V21.1767C12.0543 20.7899 14.0512 18.6257 14.1766 15.9807H11.7825C11.3957 15.9807 11.0925 15.6566 11.1029 15.2698C11.1238 14.9143 11.4688 14.6216 11.8243 14.6216H14.1871V13.3147H11.7825C11.3957 13.3147 11.0925 12.9907 11.1029 12.6038C11.1238 12.2379 11.4584 11.9661 11.8243 11.9661H14.1871V10.8788C14.6784 12.0497 15.0966 13.2625 15.4312 14.517C15.8285 16.0225 16.0689 17.4757 16.163 18.8662ZM11.7825 9.30013H13.4552C13.6783 9.73923 13.8874 10.1888 14.0825 10.6488H11.8243C11.4688 10.6488 11.1238 10.3665 11.1029 10.0111C11.0925 9.62423 11.3957 9.30013 11.7825 9.30013Z" fill="url(#paint1_linear_3676_2372_v2)"/>
  <path style="mix-blend-mode:screen" fill-rule="evenodd" clip-rule="evenodd" d="M3.12596 11.4956V10.6488H5.52009C5.90692 10.6488 6.22056 10.3247 6.19965 9.93787C6.17874 9.58241 5.83374 9.30013 5.48873 9.30013H3.12596C3.27233 6.37281 5.68737 4.03095 8.65651 4.03095C8.9597 4.03095 9.25243 4.06231 9.53471 4.11459L3.28278 0.319523C1.84003 -0.558674 0 0.476342 0 2.17001V8.92356C1.00625 8.92356 1.84672 9.67394 1.9894 10.6488H3.12596ZM3.12596 13.3147H5.48873C5.83374 13.3147 6.17874 13.0429 6.19965 12.677C6.22056 12.2797 5.90692 11.9661 5.52009 11.9661H3.12596V13.3147ZM3.12596 14.6216H5.48873C5.83374 14.6216 6.17874 14.9143 6.19965 15.2698C6.22056 15.6566 5.90692 15.9807 5.52009 15.9807H3.12596C3.27233 18.908 5.68737 21.2394 8.65651 21.2394C8.9597 21.2394 9.25243 21.207 9.53471 21.1547L3.28278 24.9498C1.84003 25.827 0 24.7919 0 23.1087V15.9807H3.12596ZM16.163 18.8662C16.0689 17.4757 15.8285 16.0225 15.4312 14.517C15.0966 13.2625 14.6784 12.0497 14.1871 10.8788V9.11493L21.9654 13.7813C23.3559 14.6279 23.3559 16.6457 21.9654 17.4925L16.163 20.8031V18.8662ZM13.4552 9.30013H11.7825C11.3957 9.30013 11.0925 9.62423 11.1029 10.0111C11.1238 10.3665 11.4688 10.6488 11.8243 10.6488H14.0825C13.8874 10.1888 13.6783 9.73923 13.4552 9.30013ZM14.1871 11.9661V13.3147H11.8243C11.4688 13.3147 11.1238 13.5969 11.1029 13.9524C11.0925 14.3392 11.3957 14.6633 11.7825 14.6633H14.1871V15.9807H11.8243C11.4688 15.9807 11.1238 16.2629 11.1029 16.6184C11.0925 17.0053 11.3957 17.3294 11.7825 17.3294H14.1766C14.0512 19.9744 12.0543 22.1386 9.48244 22.5254V23.9343L21.9654 16.3651C23.3559 15.5183 23.3559 13.5005 21.9654 12.6537L14.1871 8.00223V10.9188H11.8243C11.4688 10.9188 11.1238 11.2004 11.1029 11.5558C11.0925 11.9427 11.3957 12.2668 11.7825 12.2668H14.1871Z" fill="url(#paint2_linear_3676_2372_v2)"/>
  <defs>
    <linearGradient id="paint0_linear_3676_2372_v2" x1="4.64716" y1="1.40906" x2="22.8918" y2="26.4875" gradientUnits="userSpaceOnUse">
      <stop stop-color="#FF6347"/>
      <stop offset="1" stop-color="#FFD700"/>
    </linearGradient>
    <linearGradient id="paint1_linear_3676_2372_v2" x1="4.64716" y1="1.40906" x2="22.8918" y2="26.4875" gradientUnits="userSpaceOnUse">
      <stop stop-color="#f86945"/>
      <stop offset="1" stop-color="#cc710f"/>
    </linearGradient>
    <linearGradient id="paint2_linear_3676_2372_v2" x1="4.64716" y1="1.40906" x2="22.8918" y2="26.4875" gradientUnits="userSpaceOnUse">
      <stop stop-color="#fa3a94"/>
      <stop offset="1" stop-color="#ff0000"/>
    </linearGradient>
  </defs>
</svg>
